HIERARCHY
ROOT Hips
{
	OFFSET 0.000000 71.427986 0.000000
	CHANNELS 6 Xposition Yposition Zposition Xrotation Yrotation Zrotation
	JOINT Pelvis
	{
		OFFSET 0.000000 0.000000 0.000000
		CHANNELS 3 Xrotation Yrotation Zrotation
		JOINT LeftUpLeg
		{
			OFFSET 6.797100 -2.508499 -1.318700
			CHANNELS 3 Xrotation Yrotation Zrotation
			JOINT LeftLeg
			{
				OFFSET 0.069008 -29.241863 0.690200
				CHANNELS 3 Xrotation Yrotation Zrotation
				JOINT LeftFoot
				{
					OFFSET -0.069008 -29.568123 -0.266800
					CHANNELS 3 Xrotation Yrotation Zrotation
					JOINT LeftToeBase
					{
						OFFSET 3.145500 -8.631000 16.059900
						CHANNELS 3 Xrotation Yrotation Zrotation
						End Site
						{
							OFFSET 0.000000 18.501587 0.000000
						}
					}
				}
			}
			JOINT Left_ShortSleeve
			{
				OFFSET 0.265923 -10.480953 1.153800
				CHANNELS 3 Xrotation Yrotation Zrotation
				End Site
				{
					OFFSET 1.725763 19.823879 0.000000
				}
			}
		}
		JOINT RightUpLeg
		{
			OFFSET -6.797100 -2.508499 -1.318700
			CHANNELS 3 Xrotation Yrotation Zrotation
			JOINT RightLeg
			{
				OFFSET -0.082453 -29.241932 0.688000
				CHANNELS 3 Xrotation Yrotation Zrotation
				JOINT RightFoot
				{
					OFFSET 0.082453 -29.568058 -0.264600
					CHANNELS 3 Xrotation Yrotation Zrotation
					JOINT RightToeBase
					{
						OFFSET -3.115300 -8.682800 16.113400
						CHANNELS 3 Xrotation Yrotation Zrotation
						End Site
						{
							OFFSET 0.000000 18.567114 0.000000
						}
					}
				}
			}
			JOINT Right_ShortSleeve
			{
				OFFSET -0.265923 -10.480953 1.153800
				CHANNELS 3 Xrotation Yrotation Zrotation
				End Site
				{
					OFFSET -1.725766 19.823910 0.000000
				}
			}
		}
	}
	JOINT Spine
	{
		OFFSET 0.000000 13.368103 0.470500
		CHANNELS 3 Xrotation Yrotation Zrotation
		JOINT Spine1
		{
			OFFSET 0.147000 13.837402 0.538800
			CHANNELS 3 Xrotation Yrotation Zrotation
			JOINT Spine2
			{
				OFFSET 0.168000 16.242897 -1.435500
				CHANNELS 3 Xrotation Yrotation Zrotation
				JOINT Neck
				{
					OFFSET 0.217200 18.631500 -1.679100
					CHANNELS 3 Xrotation Yrotation Zrotation
					JOINT Head
					{
						OFFSET 0.000000 6.599396 1.385900
						CHANNELS 3 Xrotation Yrotation Zrotation
						JOINT Hat
						{
							OFFSET -0.532200 27.220596 -10.096100
							CHANNELS 3 Xrotation Yrotation Zrotation
							End Site
							{
								OFFSET 0.000000 22.029861 0.000000
							}
						}
						JOINT HairD
						{
							OFFSET -10.777400 17.437393 -1.325900
							CHANNELS 3 Xrotation Yrotation Zrotation
							JOINT HairD1
							{
								OFFSET -3.290299 -11.051193 1.062200
								CHANNELS 3 Xrotation Yrotation Zrotation
								End Site
								{
									OFFSET 0.000000 11.579437 0.000000
								}
							}
						}
						JOINT HairB
						{
							OFFSET -10.777400 17.437393 1.467900
							CHANNELS 3 Xrotation Yrotation Zrotation
							JOINT HairB1
							{
								OFFSET -1.561200 -12.956299 3.590200
								CHANNELS 3 Xrotation Yrotation Zrotation
								End Site
								{
									OFFSET 0.000000 13.534866 0.000000
								}
							}
						}
						JOINT HairA
						{
							OFFSET 9.713100 17.437393 1.467900
							CHANNELS 3 Xrotation Yrotation Zrotation
							JOINT HairA1
							{
								OFFSET 1.561200 -12.956299 3.590200
								CHANNELS 3 Xrotation Yrotation Zrotation
								End Site
								{
									OFFSET 0.000000 13.534866 0.000000
								}
							}
						}
						JOINT HairC
						{
							OFFSET 9.713100 17.437393 -1.325900
							CHANNELS 3 Xrotation Yrotation Zrotation
							JOINT HairC1
							{
								OFFSET 3.290300 -11.051193 1.062200
								CHANNELS 3 Xrotation Yrotation Zrotation
								End Site
								{
									OFFSET 0.000000 11.579437 0.000000
								}
							}
						}
					}
				}
				JOINT LeftShoulder
				{
					OFFSET 5.101800 15.108002 -2.763700
					CHANNELS 3 Xrotation Yrotation Zrotation
					JOINT LeftArm
					{
						OFFSET 9.825497 2.506317 -1.597400
						CHANNELS 3 Xrotation Yrotation Zrotation
						JOINT LeftForeArm
						{
							OFFSET 21.966244 0.000000 0.000000
							CHANNELS 3 Xrotation Yrotation Zrotation
							JOINT LeftHand
							{
								OFFSET 33.879036 0.000000 0.000000
								CHANNELS 3 Xrotation Yrotation Zrotation
								JOINT LeftHandThumb1
								{
									OFFSET 6.715286 -2.359680 3.363841
									CHANNELS 3 Xrotation Yrotation Zrotation
									JOINT LeftHandThumb2
									{
										OFFSET 2.507072 -1.447464 1.447461
										CHANNELS 3 Xrotation Yrotation Zrotation
										JOINT LeftHandThumb3
										{
											OFFSET 2.898338 -1.673355 1.673357
											CHANNELS 3 Xrotation Yrotation Zrotation
											End Site
											{
												OFFSET -0.295959 3.727692 -0.131651
											}
										}
									}
								}
								JOINT LeftHandIndex1
								{
									OFFSET 14.190811 -0.254547 3.840278
									CHANNELS 3 Xrotation Yrotation Zrotation
									JOINT LeftHandIndex2
									{
										OFFSET 3.551727 0.000000 -0.000000
										CHANNELS 3 Xrotation Yrotation Zrotation
										JOINT LeftHandIndex3
										{
											OFFSET 2.894196 0.000000 0.000000
											CHANNELS 3 Xrotation Yrotation Zrotation
											End Site
											{
												OFFSET -1.000603 2.690872 0.366626
											}
										}
									}
								}
								JOINT LeftHandMiddle1
								{
									OFFSET 13.776489 0.000000 0.000000
									CHANNELS 3 Xrotation Yrotation Zrotation
									JOINT LeftHandMiddle2
									{
										OFFSET 3.438232 0.000000 0.000000
										CHANNELS 3 Xrotation Yrotation Zrotation
										JOINT LeftHandMiddle3
										{
											OFFSET 3.691551 0.000000 0.000000
											CHANNELS 3 Xrotation Yrotation Zrotation
											End Site
											{
												OFFSET -1.082298 3.499527 0.457670
											}
										}
									}
								}
								JOINT LeftHandRing1
								{
									OFFSET 13.966164 -0.268127 -3.067488
									CHANNELS 3 Xrotation Yrotation Zrotation
									JOINT LeftHandRing2
									{
										OFFSET 3.162567 0.000000 0.000000
										CHANNELS 3 Xrotation Yrotation Zrotation
										JOINT LeftHandRing3
										{
											OFFSET 3.324348 0.000000 0.000000
											CHANNELS 3 Xrotation Yrotation Zrotation
											End Site
											{
												OFFSET -0.861900 3.184998 0.405154
											}
										}
									}
								}
								JOINT LeftHandPinky1
								{
									OFFSET 13.131393 -0.168503 -5.746925
									CHANNELS 3 Xrotation Yrotation Zrotation
									JOINT LeftHandPinky2
									{
										OFFSET 2.849182 0.000000 0.000000
										CHANNELS 3 Xrotation Yrotation Zrotation
										JOINT LeftHandPinky3
										{
											OFFSET 2.805038 0.000000 0.000000
											CHANNELS 3 Xrotation Yrotation Zrotation
											End Site
											{
												OFFSET -0.882500 2.642609 0.325652
											}
										}
									}
								}
							}
							JOINT Left_Sleeve
							{
								OFFSET 6.592125 -0.646545 0.805568
								CHANNELS 3 Xrotation Yrotation Zrotation
								End Site
								{
									OFFSET -0.000179 20.275787 -0.000000
								}
							}
						}
					}
				}
				JOINT RightShoulder
				{
					OFFSET -5.731700 15.108002 -2.763700
					CHANNELS 3 Xrotation Yrotation Zrotation
					JOINT RightArm
					{
						OFFSET -9.825497 2.506317 -1.597400
						CHANNELS 3 Xrotation Yrotation Zrotation
						JOINT RightForeArm
						{
							OFFSET -21.966242 0.000000 0.000000
							CHANNELS 3 Xrotation Yrotation Zrotation
							JOINT RightHand
							{
								OFFSET -33.879032 0.000000 0.000000
								CHANNELS 3 Xrotation Yrotation Zrotation
								JOINT RightHandThumb1
								{
									OFFSET -6.715286 -2.359680 3.363841
									CHANNELS 3 Xrotation Yrotation Zrotation
									JOINT RightHandThumb2
									{
										OFFSET -2.507072 -1.447464 1.447461
										CHANNELS 3 Xrotation Yrotation Zrotation
										JOINT RightHandThumb3
										{
											OFFSET -2.898338 -1.673355 1.673357
											CHANNELS 3 Xrotation Yrotation Zrotation
											End Site
											{
												OFFSET 0.295959 3.727692 -0.131651
											}
										}
									}
								}
								JOINT RightHandIndex1
								{
									OFFSET -14.190811 -0.254547 3.840278
									CHANNELS 3 Xrotation Yrotation Zrotation
									JOINT RightHandIndex2
									{
										OFFSET -3.551727 0.000000 -0.000000
										CHANNELS 3 Xrotation Yrotation Zrotation
										JOINT RightHandIndex3
										{
											OFFSET -2.894196 0.000000 0.000000
											CHANNELS 3 Xrotation Yrotation Zrotation
											End Site
											{
												OFFSET 1.000603 2.690872 0.366626
											}
										}
									}
								}
								JOINT RightHandMiddle1
								{
									OFFSET -13.776489 0.000000 0.000000
									CHANNELS 3 Xrotation Yrotation Zrotation
									JOINT RightHandMiddle2
									{
										OFFSET -3.438232 0.000000 0.000000
										CHANNELS 3 Xrotation Yrotation Zrotation
										JOINT RightHandMiddle3
										{
											OFFSET -3.691551 0.000000 0.000000
											CHANNELS 3 Xrotation Yrotation Zrotation
											End Site
											{
												OFFSET 1.082298 3.499527 0.457670
											}
										}
									}
								}
								JOINT RightHandRing1
								{
									OFFSET -13.966164 -0.268127 -3.067488
									CHANNELS 3 Xrotation Yrotation Zrotation
									JOINT RightHandRing2
									{
										OFFSET -3.162567 0.000000 0.000000
										CHANNELS 3 Xrotation Yrotation Zrotation
										JOINT RightHandRing3
										{
											OFFSET -3.324348 0.000000 0.000000
											CHANNELS 3 Xrotation Yrotation Zrotation
											End Site
											{
												OFFSET 0.861900 3.184998 0.405154
											}
										}
									}
								}
								JOINT RightHandPinky1
								{
									OFFSET -13.131393 -0.168503 -5.746925
									CHANNELS 3 Xrotation Yrotation Zrotation
									JOINT RightHandPinky2
									{
										OFFSET -2.849182 0.000000 0.000000
										CHANNELS 3 Xrotation Yrotation Zrotation
										JOINT RightHandPinky3
										{
											OFFSET -2.805038 0.000000 0.000000
											CHANNELS 3 Xrotation Yrotation Zrotation
											End Site
											{
												OFFSET 0.882500 2.642609 0.325652
											}
										}
									}
								}
							}
							JOINT Right_Sleeve
							{
								OFFSET -6.592125 -0.646545 0.805568
								CHANNELS 3 Xrotation Yrotation Zrotation
								End Site
								{
									OFFSET 0.000179 20.275787 -0.000000
								}
							}
						}
					}
				}
				JOINT Bind_Right_JacketString
				{
					OFFSET -3.534800 11.969597 7.200700
					CHANNELS 3 Xrotation Yrotation Zrotation
					JOINT Bind_Right_JacketString1
					{
						OFFSET -0.319900 -6.102600 2.794100
						CHANNELS 3 Xrotation Yrotation Zrotation
						End Site
						{
							OFFSET 0.000000 6.719452 0.000000
						}
					}
				}
				JOINT Bind_Left_JacketString
				{
					OFFSET 2.904800 11.969597 7.200700
					CHANNELS 3 Xrotation Yrotation Zrotation
					JOINT Bind_Left_JacketString1
					{
						OFFSET 0.364800 -5.904503 3.186800
						CHANNELS 3 Xrotation Yrotation Zrotation
						End Site
						{
							OFFSET 0.000000 6.719513 0.000000
						}
					}
				}
				JOINT HairE
				{
					OFFSET 5.915200 17.612701 -11.592200
					CHANNELS 3 Xrotation Yrotation Zrotation
					JOINT HairE1
					{
						OFFSET 0.289200 -7.171898 -1.284500
						CHANNELS 3 Xrotation Yrotation Zrotation
						End Site
						{
							OFFSET 0.000000 7.291756 0.000000
						}
					}
				}
				JOINT HairF
				{
					OFFSET -0.864800 17.612701 -11.592200
					CHANNELS 3 Xrotation Yrotation Zrotation
					JOINT HairF1
					{
						OFFSET 0.000000 -14.087097 -2.127501
						CHANNELS 3 Xrotation Yrotation Zrotation
						End Site
						{
							OFFSET 0.000000 14.246841 0.000000
						}
					}
				}
				JOINT HairG
				{
					OFFSET -8.087700 17.612701 -11.592200
					CHANNELS 3 Xrotation Yrotation Zrotation
					JOINT HairG1
					{
						OFFSET -0.293600 -6.081398 -0.910100
						CHANNELS 3 Xrotation Yrotation Zrotation
						End Site
						{
							OFFSET 0.000000 6.156120 0.000000
						}
					}
				}
			}
		}
	}
	JOINT Pouch
	{
		OFFSET 0.000000 4.394501 10.847300
		CHANNELS 3 Xrotation Yrotation Zrotation
		End Site
		{
			OFFSET 0.000000 21.880577 0.000000
		}
	}
	JOINT Bag
	{
		OFFSET -13.229000 4.813004 -0.593300
		CHANNELS 3 Xrotation Yrotation Zrotation
		End Site
		{
			OFFSET 0.000000 21.880577 0.000000
		}
	}
	JOINT OccupyGuyFacialAnim_Joint
	{
		OFFSET 1.000000 -70.206398 -1.655000
		CHANNELS 3 Xrotation Yrotation Zrotation
		End Site
		{
			OFFSET 0.000000 21.880577 0.000000
		}
	}
}
MOTION
Frames: 5
Frame Time: 0.033333
-0.506380 70.171013 1.273378 -4.835330 -15.924933 2.206402 0.000001 0.000002 0.000000 -4.585950 8.163268 2.881134 15.486873 1.228365 1.135742 -6.064003 0.568508 -6.272504 -0.000000 0.000000 0.000000 -0.000001 -0.000000 -0.000000 1.506779 -11.138950 -0.758495 21.000916 -9.917501 -0.603570 -18.861173 -3.537795 0.454180 -0.000000 0.000003 0.000000 -0.000000 0.000000 -0.000002 7.016636 -0.990772 -0.968141 2.122423 -0.558017 -0.136430 2.126635 -0.547217 -0.131294 -0.056259 2.464665 1.219015 -3.671289 14.252381 -4.790639 0.000000 -0.000000 0.000000 0.000000 -0.000000 0.000000 0.000000 -0.000000 0.000000 0.000000 -0.000000 0.000000 -0.000000 0.000000 0.000000 0.000000 -0.000000 0.000000 -0.000000 0.000000 0.000000 0.000000 -0.000000 0.000000 0.000000 -0.000000 0.000000 2.754389 -3.249407 -8.893130 -0.834487 -10.498656 -65.567951 0.000002 -21.714428 -0.000010 15.880122 -4.770365 -4.589864 -3.229606 4.167692 8.256256 7.185165 21.615366 2.151183 -0.000002 -0.000003 0.000000 -0.344996 2.383857 -21.092372 2.168128 4.549645 -50.941829 0.000001 0.000000 0.000002 -0.345002 2.383857 -21.092399 1.579857 4.002667 -43.064749 0.000002 0.000005 0.000003 -0.344994 2.383835 -21.092396 2.382793 4.715228 -53.599326 -0.000000 -0.000001 -0.000004 -3.407764 3.544385 -20.830161 2.101681 4.495105 -50.099123 0.000000 -0.000002 0.000003 0.000001 -0.000001 -0.000000 1.845105 11.159389 11.603878 -11.245116 -20.527958 69.067952 -0.000003 15.647439 -0.000001 28.208524 6.520354 7.067275 -4.148500 -2.164033 -7.623274 7.424582 -23.446887 -2.813799 0.000000 0.000000 0.000003 -0.435578 -1.812689 20.387281 1.727984 -3.622217 50.995534 -0.000002 -0.000001 0.000000 -0.435581 -1.812691 20.387285 1.259520 -3.187022 43.119517 0.000003 0.000000 0.000001 -0.435579 -1.812678 20.387283 1.898881 -3.753931 53.651737 -0.000003 0.000000 -0.000003 -3.509888 -2.938347 20.155820 1.675084 -3.578823 50.153123 -0.000002 0.000001 0.000001 0.000000 0.000001 0.000000 -0.000000 0.000001 -0.000000 -0.000000 0.000001 0.000000 -0.000000 0.000001 0.000000 -0.000000 0.000001 0.000000 -0.000000 0.000001 -0.000000 -0.000000 0.000001 0.000000 -0.000000 0.000001 0.000000 -0.000000 0.000001 0.000000 -0.000000 0.000001 -0.000000 -0.000000 0.000001 0.000000 0.000001 0.000002 0.000000 0.000001 0.000002 0.000000 0.000001 0.000002 0.000000 
-0.553248 70.137955 1.371434 -4.832010 -16.670687 2.260942 0.000001 -0.000001 -0.000000 -4.359861 8.326846 2.805710 15.444053 1.708072 1.133444 -6.013442 0.597618 -6.372205 -0.000000 0.000000 0.000000 0.000001 0.000000 -0.000000 1.320874 -11.309329 -1.061949 21.418423 -9.916246 -0.556495 -19.122826 -2.684808 0.605579 0.000000 0.000003 0.000000 -0.000000 0.000000 -0.000000 7.125601 -1.101003 -1.067304 2.079881 -0.617560 -0.170369 2.084482 -0.606996 -0.164267 0.021028 2.499998 1.232541 -3.617103 14.511065 -4.769848 0.000000 -0.000000 -0.000000 0.000000 -0.000000 -0.000000 0.000000 -0.000000 -0.000000 0.000000 -0.000000 -0.000000 -0.000000 -0.000000 -0.000000 0.000000 -0.000000 -0.000000 -0.000000 -0.000000 -0.000000 0.000000 -0.000000 -0.000000 0.000000 -0.000000 -0.000000 2.745259 -3.324620 -8.740947 -0.953207 -10.685909 -65.755980 -0.000004 -20.986055 0.000004 15.611529 -4.964902 -3.756411 -3.237848 4.130921 8.244860 7.178542 21.582144 2.177374 0.000000 -0.000001 -0.000001 -0.353303 2.362419 -21.094397 2.159640 4.542767 -50.834755 -0.000004 0.000000 -0.000002 -0.345023 2.383855 -21.092405 1.573557 3.995932 -42.974287 0.000000 -0.000000 0.000002 -0.337919 2.402232 -21.090673 2.373530 4.708383 -53.486641 -0.000003 0.000003 -0.000001 -3.392629 3.584138 -20.826743 2.093435 4.488215 -49.993829 0.000001 0.000001 0.000003 0.000001 0.000003 -0.000001 1.847080 11.145329 11.604337 -11.076975 -20.384493 69.113912 0.000003 15.398562 -0.000005 28.272793 7.082269 6.683605 -4.156527 -2.127077 -7.611998 7.418544 -23.413854 -2.840341 -0.000000 -0.000001 0.000002 -0.443599 -1.791108 20.388909 1.721222 -3.616745 50.888488 0.000001 -0.000002 -0.000000 -0.435576 -1.812689 20.387307 1.254495 -3.181652 43.029072 0.000001 -0.000001 0.000001 -0.428691 -1.831187 20.385890 1.891512 -3.748510 53.539117 0.000000 0.000000 0.000003 -3.495183 -2.978343 20.153095 1.668522 -3.573347 50.047894 -0.000003 0.000001 0.000002 -0.000001 0.000000 -0.000001 -0.000001 -0.000001 -0.000000 -0.000000 0.000001 -0.000000 -0.000001 -0.000001 -0.000000 -0.000001 -0.000001 -0.000000 -0.000001 -0.000001 -0.000000 -0.000000 0.000001 -0.000000 -0.000001 -0.000001 -0.000000 -0.000001 -0.000001 -0.000000 -0.000001 -0.000001 -0.000000 -0.000000 0.000001 -0.000000 0.000001 -0.000001 -0.000000 0.000001 -0.000001 -0.000000 0.000001 -0.000001 -0.000000 
-0.601494 70.086693 1.479902 -4.837278 -17.557433 2.253076 -0.000000 0.000001 0.000000 -4.216096 8.488813 2.809599 15.591251 2.379956 1.131435 -6.002377 0.623136 -6.518349 0.000000 0.000000 -0.000000 -0.000000 -0.000001 -0.000000 1.083876 -11.436652 -1.350772 21.959663 -9.913255 -0.505232 -19.442745 -1.749129 0.784677 -0.000000 0.000002 0.000000 0.000000 -0.000003 -0.000000 7.243275 -1.210068 -1.126523 2.055533 -0.680069 -0.201672 2.060491 -0.669791 -0.194534 0.075977 2.541288 1.227034 -3.575914 14.780859 -4.726279 0.000000 -0.000000 0.000000 0.000000 -0.000000 0.000000 0.000000 -0.000000 0.000000 0.000000 -0.000000 0.000000 0.000000 -0.000000 0.000000 0.000000 -0.000000 0.000000 0.000000 -0.000000 0.000000 0.000000 -0.000000 0.000000 0.000000 -0.000000 0.000000 2.736076 -3.391156 -8.545147 -0.771881 -10.909371 -65.883322 -0.000003 -21.075317 -0.000009 15.131616 -4.363993 -2.952145 -3.257141 4.044873 8.218164 7.163100 21.504371 2.238608 0.000002 -0.000002 -0.000002 -0.372659 2.312255 -21.099120 2.139841 4.526617 -50.584220 0.000003 0.000003 0.000000 -0.345006 2.383853 -21.092398 1.558830 3.980120 -42.762711 0.000000 0.000004 0.000003 -0.321304 2.445274 -21.086647 2.351939 4.692391 -53.222996 0.000001 0.000003 -0.000003 -3.357181 3.677166 -20.818789 2.074195 4.472056 -49.747485 -0.000002 0.000000 -0.000001 0.000000 -0.000000 0.000001 1.848040 11.127148 11.623525 -10.487225 -20.289089 69.192596 0.000001 16.037844 -0.000012 27.917196 7.412927 6.524437 -4.175359 -2.040646 -7.585446 7.404398 -23.336559 -2.902490 0.000000 -0.000000 0.000003 -0.462380 -1.740613 20.392687 1.705459 -3.603890 50.638080 -0.000002 -0.000000 0.000002 -0.435576 -1.812693 20.387281 1.242769 -3.169065 42.817452 0.000000 0.000002 0.000005 -0.412583 -1.874509 20.382637 1.874310 -3.735768 53.275622 -0.000000 -0.000000 0.000004 -3.460793 -3.071951 20.146806 1.653203 -3.560487 49.801607 0.000001 0.000001 0.000002 -0.000001 0.000000 0.000000 -0.000000 0.000001 -0.000000 -0.000000 -0.000001 -0.000000 -0.000000 0.000001 -0.000000 -0.000000 0.000001 -0.000000 -0.000000 0.000001 -0.000000 -0.000000 -0.000001 -0.000000 -0.000000 0.000001 -0.000000 -0.000000 0.000001 -0.000000 -0.000000 0.000001 -0.000000 -0.000000 -0.000001 -0.000000 -0.000000 0.000001 0.000000 -0.000000 0.000001 0.000000 -0.000000 0.000001 0.000000 
-0.644928 70.022179 1.611005 -4.851764 -18.496757 2.182797 0.000001 -0.000001 0.000000 -4.335098 8.553752 2.915721 16.376295 3.137924 1.131605 -6.594859 0.641746 -6.720518 -0.000000 -0.000000 -0.000000 0.000000 0.000001 -0.000000 0.880948 -11.489363 -1.591958 22.524714 -9.908479 -0.455276 -19.800068 -0.831882 0.984912 0.000000 -0.000004 -0.000000 0.000000 0.000001 0.000000 7.368700 -1.348839 -1.142428 2.073029 -0.766371 -0.233185 2.078417 -0.756375 -0.224733 0.081982 2.595545 1.200146 -3.561678 15.104314 -4.699571 0.000000 0.000000 0.000000 0.000000 0.000000 0.000000 0.000000 0.000000 0.000000 0.000000 0.000000 -0.000000 -0.000000 -0.000000 -0.000000 0.000000 0.000000 -0.000000 -0.000000 -0.000000 -0.000000 0.000000 0.000000 0.000000 0.000000 0.000000 0.000000 2.723489 -3.470224 -8.289138 -0.532808 -11.306606 -65.876874 -0.000001 -21.978896 -0.000007 14.412061 -2.982128 -2.563916 -3.289410 3.901404 8.173593 7.137381 21.374720 2.340567 0.000002 -0.000001 -0.000001 -0.404945 2.228625 -21.107026 2.106975 4.499488 -50.166619 -0.000002 0.000004 -0.000003 -0.345020 2.383846 -21.092398 1.534431 3.953626 -42.409953 -0.000001 -0.000001 0.000001 -0.293599 2.517033 -21.079948 2.316067 4.665451 -52.783473 0.000000 0.000004 -0.000001 -3.298101 3.832236 -20.805671 2.042271 4.444909 -49.336789 -0.000001 -0.000000 0.000003 -0.000005 0.000000 0.000001 1.847576 11.103043 11.664676 -9.614444 -20.101660 69.162926 0.000008 17.556574 -0.000015 27.119246 7.645215 6.889667 -4.206842 -1.896571 -7.541142 7.380858 -23.207671 -3.005996 -0.000000 -0.000001 0.000002 -0.493688 -1.656432 20.399092 1.679288 -3.582311 50.220622 -0.000001 0.000002 0.000004 -0.435576 -1.812693 20.387300 1.223329 -3.147989 42.464611 0.000002 -0.000001 0.000001 -0.385729 -1.946733 20.377248 1.845773 -3.714352 52.836346 0.000001 -0.000000 -0.000000 -3.403460 -3.228016 20.136391 1.627780 -3.538889 49.391079 0.000000 0.000000 0.000000 -0.000000 -0.000000 -0.000001 -0.000000 0.000001 -0.000000 0.000000 0.000001 -0.000000 -0.000000 0.000001 -0.000000 -0.000000 0.000001 -0.000000 -0.000000 0.000001 -0.000000 0.000000 0.000001 -0.000000 -0.000000 0.000001 -0.000000 -0.000000 0.000001 -0.000000 -0.000000 0.000001 -0.000000 0.000000 0.000001 -0.000000 0.000001 -0.000001 0.000000 0.000001 -0.000001 0.000000 0.000001 -0.000001 0.000000 
-0.673123 69.959602 1.759163 -4.850835 -19.359825 2.091643 -0.000000 -0.000001 -0.000000 -4.473846 8.497128 2.995854 17.183243 3.415203 1.132777 -7.267575 0.603917 -6.842303 0.000000 0.000000 -0.000000 -0.000001 0.000000 -0.000000 0.779983 -11.478707 -1.774312 22.967754 -9.256998 -0.430471 -20.137998 -0.625689 0.981858 -0.000000 -0.000000 -0.000000 0.000000 -0.000002 -0.000000 7.502388 -1.539227 -1.133313 2.135539 -0.889342 -0.266853 2.141515 -0.879500 -0.256672 0.037332 2.666672 1.162719 -3.602174 15.530911 -4.740829 -0.000000 -0.000000 -0.000000 -0.000000 -0.000000 -0.000000 -0.000000 -0.000000 -0.000000 -0.000000 -0.000000 -0.000000 -0.000000 -0.000000 0.000000 -0.000000 -0.000000 -0.000000 -0.000000 -0.000000 0.000000 -0.000000 -0.000000 -0.000000 -0.000000 -0.000000 -0.000000 2.705419 -3.599175 -7.941382 -0.772247 -12.246293 -65.603100 -0.000010 -22.796658 -0.000007 13.445152 -1.588226 -2.714381 -3.334874 3.699998 8.110865 7.101279 21.192675 2.483697 0.000002 0.000001 -0.000001 -0.450314 2.111214 -21.118199 2.061171 4.460996 -49.580261 0.000001 -0.000001 -0.000000 -0.344998 2.383850 -21.092398 1.500443 3.916184 -41.914675 0.000002 0.000002 -0.000001 -0.254725 2.617792 -21.070645 2.266096 4.627186 -52.166362 0.000001 0.000001 -0.000004 -3.215189 4.050023 -20.787501 1.997778 4.406412 -48.760191 -0.000004 -0.000001 0.000004 -0.000000 -0.000002 0.000000 1.848982 11.069586 11.696801 -8.767822 -19.629685 68.778202 0.000003 19.746202 0.000005 25.875074 7.944313 7.898689 -4.251242 -1.694294 -7.478868 7.347848 -23.026678 -3.151248 0.000000 -0.000001 0.000001 -0.537676 -1.538239 20.408161 1.642829 -3.551687 49.634445 0.000000 -0.000001 -0.000003 -0.435578 -1.812691 20.387300 1.196258 -3.118189 41.969252 -0.000001 -0.000001 -0.000001 -0.348045 -2.048163 20.369769 1.805976 -3.683912 52.219542 0.000002 0.000001 0.000004 -3.323002 -3.447168 20.122070 1.592352 -3.508257 48.814624 -0.000001 -0.000001 -0.000005 -0.000003 0.000001 0.000000 -0.000001 -0.000002 0.000000 0.000000 -0.000002 0.000000 -0.000001 -0.000002 0.000000 -0.000001 -0.000002 0.000000 -0.000001 -0.000002 0.000000 0.000000 -0.000002 0.000000 -0.000001 -0.000002 0.000000 -0.000001 -0.000002 0.000000 -0.000001 -0.000002 0.000000 0.000000 -0.000002 0.000000 -0.000000 -0.000001 -0.000000 -0.000000 -0.000001 -0.000000 -0.000000 -0.000001 -0.000000 
